<svg height="800px" width="800px" version="1.1" id="Capa_1" xmlns="http://www.w3.org/2000/svg"
	xmlns:xlink="http://www.w3.org/1999/xlink"
	viewBox="0 0 63.287 63.287" xml:space="preserve">
<path style="fill: #231f20" d="M 61 20.1 c 0 -4.4 -3.6 -8 -8 -8 s -8 3.6 -8 8 c 0 4.1 3.1 7.4 7 7.9 v 20.7 c 0 6.9 -5.6 12.5 -12.5 12.5 h -8.4 c -6.9 0 -12.5 -5.6 -12.5 -12.5 V 36.9 h 3.6 c 4.5 0 7.1 -4.5 7.7 -7.6 c 0.1 -0.6 2.6 -15.4 2.9 -20.5 c 0.1 -1.9 -0.5 -3.8 -1.9 -5.3 c -1.5 -1.6 -3.6 -2.5 -5.8 -2.5 h -1.4 C 23.6 0.5 23.1 0 22.5 0 H 20.5 c -0.6 0 -1.1 0.5 -1.1 1.1 v 1.8 c 0 0.6 0.5 1.1 1.1 1.1 h 2 c 0.6 0 1.1 -0.5 1.1 -1 h 1.4 c 1.6 0 3.2 0.7 4.4 1.9 c 1 1.1 1.5 2.4 1.4 3.8 c -0.4 5 -2.9 20.2 -2.9 20.3 c -0.5 2.3 -2.5 6 -5.8 6 h -9.1 c -3.3 0 -5.3 -3.7 -5.8 -5.9 C 7.2 28.9 4.7 13.8 4.3 8.7 c -0.1 -1.4 0.4 -2.7 1.4 -3.8 C 6.8 3.7 8.4 3 10.1 3 h 1.4 c 0 0.6 0.5 1 1.1 1 h 2 c 0.6 0 1.1 -0.5 1.1 -1.1 V 1.1 C 15.7 0.5 15.2 0 14.6 0 h -2 c -0.6 0 -1.1 0.5 -1.1 1 h -1.4 c -2.2 0 -4.3 0.9 -5.8 2.5 c -1.4 1.5 -2.1 3.4 -1.9 5.3 c 0.4 5.1 2.8 19.9 3 20.5 c 0.7 3 3.3 7.5 7.7 7.5 h 3.6 v 11.8 c 0 8 6.5 14.5 14.5 14.5 h 8.4 c 8 0 14.5 -6.5 14.5 -14.5 v -20.7 C 57.9 27.5 61 24.2 61 20.1 z M 53 26.1 c -3.3 0 -6 -2.7 -6 -6 s 2.7 -6 6 -6 s 6 2.7 6 6 S 56.3 26.1 53 26.1 z M 53 16.7 c -1.9 0 -3.4 1.5 -3.4 3.4 s 1.5 3.4 3.4 3.4 s 3.4 -1.5 3.4 -3.4 S 54.9 16.7 53 16.7 z M 53 21.5 c -0.8 0 -1.4 -0.6 -1.4 -1.4 s 0.6 -1.4 1.4 -1.4 s 1.4 0.6 1.4 1.4 S 53.8 21.5 53 21.5 z"
	/>
</svg>